<svg width="15" height="16" viewBox="0 0 15 16" fill="none" xmlns="http://www.w3.org/2000/svg">
<path d="M6.29643 1.65183C6.56077 0.662766 7.96427 0.662763 8.22862 1.65183L8.77675 3.70275C9.0106 4.57772 9.80324 5.18635 10.7089 5.18635H13.0188C13.9399 5.18635 14.3711 6.32608 13.6808 6.93584L11.3402 9.00327C10.7717 9.5054 10.5362 10.2859 10.732 11.0187L11.5035 13.9052C11.7592 14.862 10.6177 15.5685 9.87537 14.9129L8.58655 13.7745C7.83026 13.1065 6.69479 13.1065 5.9385 13.7745L4.64968 14.9129C3.9074 15.5685 2.76586 14.862 3.02157 13.9052L3.79303 11.0187C3.98887 10.2859 3.75335 9.5054 3.18487 9.00327L0.844239 6.93584C0.153909 6.32608 0.585188 5.18635 1.50625 5.18635H3.81612C4.7218 5.18635 5.51445 4.57772 5.7483 3.70274L6.29643 1.65183Z" fill="#D9D9D9" stroke="#C4C4C4"/>
</svg>
