<svg width="14" height="12" viewBox="0 0 14 12" fill="none" xmlns="http://www.w3.org/2000/svg">
<path d="M7.94619 1.3115L8.42504 2.71157C8.70177 3.52068 9.46229 4.06434 10.3174 4.06434H11.6967C12.6778 4.06434 13.0722 5.33003 12.2647 5.88734L11.2835 6.56462C10.5463 7.07343 10.2373 8.01033 10.5272 8.85784L10.9328 10.0439C11.2449 10.9563 10.2122 11.7382 9.41861 11.1905L8.13609 10.3053C7.45223 9.83328 6.54776 9.83328 5.86391 10.3053L4.58139 11.1905C3.78781 11.7382 2.75511 10.9563 3.06715 10.0439L3.47281 8.85784C3.76268 8.01032 3.4537 7.07343 2.71652 6.56462L1.73526 5.88733C0.927817 5.33003 1.3222 4.06434 2.3033 4.06434H3.68258C4.53771 4.06434 5.29823 3.52068 5.57496 2.71157L6.05381 1.3115C6.36226 0.409659 7.63774 0.409659 7.94619 1.3115Z" fill="#FFBD59" stroke="#C4C4C4"/>
</svg>
